<svg width="1920" height="2025" viewBox="0 0 1920 2025" fill="none" xmlns="http://www.w3.org/2000/svg">
<g clip-path="url(#clip0_375_53)">
<rect width="1920" height="2025" fill="#181818"/>
<path d="M227.71 541.32C194.363 541.32 163.253 535.83 134.38 524.85C105.913 513.463 80.9033 497.603 59.35 477.27C37.7967 456.937 20.92 433.147 8.72 405.9C-3.07333 378.247 -8.97 348.357 -8.97 316.23C-8.97 283.697 -3.07333 253.807 8.72 226.56C20.92 199.313 37.5933 175.727 58.74 155.8C80.2933 135.873 105.303 120.42 133.77 109.44C162.237 98.0533 193.143 92.36 226.49 92.36C260.243 92.36 291.15 97.6466 319.21 108.22C347.27 118.793 371.67 133.433 392.41 152.14L311.28 233.88C301.52 223.307 289.523 214.97 275.29 208.87C261.463 202.77 245.197 199.72 226.49 199.72C210.223 199.72 195.177 202.363 181.35 207.65C167.93 212.937 156.34 220.663 146.58 230.83C136.82 240.997 129.093 253.4 123.4 268.04C118.113 282.273 115.47 298.337 115.47 316.23C115.47 334.53 118.113 351 123.4 365.64C129.093 379.873 136.82 392.073 146.58 402.24C156.34 412.407 167.93 420.337 181.35 426.03C195.177 431.317 210.223 433.96 226.49 433.96C244.79 433.96 261.057 431.113 275.29 425.42C289.93 419.727 302.537 411.39 313.11 400.41L394.85 482.15C373.297 500.857 349.1 515.497 322.26 526.07C295.42 536.237 263.903 541.32 227.71 541.32ZM535.951 360.76V276.58H609.761C626.434 276.58 639.041 272.513 647.581 264.38C656.527 256.247 661.001 245.47 661.001 232.05C661.001 218.63 656.527 207.853 647.581 199.72C639.041 191.587 626.434 187.52 609.761 187.52H535.951V99.68H629.281C659.374 99.68 685.807 105.17 708.581 116.15C731.354 127.13 749.247 142.38 762.261 161.9C775.274 181.42 781.781 204.193 781.781 230.22C781.781 256.247 775.071 279.02 761.651 298.54C748.637 318.06 730.337 333.31 706.751 344.29C683.164 355.27 655.307 360.76 623.181 360.76H535.951ZM437.131 534V99.68H559.131V534H437.131ZM671.371 534L553.031 348.56L662.831 324.77L809.841 534H671.371ZM840.422 534V99.68H962.422V534H840.422ZM939.242 534V432.74H1172.26V534H939.242ZM939.242 361.98V263.16H1149.69V361.98H939.242ZM939.242 200.94V99.68H1168.6V200.94H939.242ZM1197.68 534L1362.99 99.68H1487.43L1650.91 534H1524.03L1402.64 164.95H1446.56L1322.12 534H1197.68ZM1305.04 460.8V365.64H1547.82V460.8H1305.04ZM1784.54 360.76V276.58H1858.35C1875.03 276.58 1887.63 272.513 1896.17 264.38C1905.12 256.247 1909.59 245.47 1909.59 232.05C1909.59 218.63 1905.12 207.853 1896.17 199.72C1887.63 191.587 1875.03 187.52 1858.35 187.52H1784.54V99.68H1877.87C1907.97 99.68 1934.4 105.17 1957.17 116.15C1979.95 127.13 1997.84 142.38 2010.85 161.9C2023.87 181.42 2030.37 204.193 2030.37 230.22C2030.37 256.247 2023.66 279.02 2010.24 298.54C1997.23 318.06 1978.93 333.31 1955.34 344.29C1931.76 355.27 1903.9 360.76 1871.77 360.76H1784.54ZM1685.72 534V99.68H1807.72V534H1685.72ZM1919.96 534L1801.62 348.56L1911.42 324.77L2058.43 534H1919.96Z" fill="url(#paint0_linear_375_53)" fill-opacity="0.07"/>
<rect y="621" width="1920" height="4" fill="url(#paint1_linear_375_53)"/>
</g>
<defs>
<linearGradient id="paint0_linear_375_53" x1="-23" y1="308" x2="2114" y2="308" gradientUnits="userSpaceOnUse">
<stop stop-color="white"/>
<stop offset="1" stop-color="#999999" stop-opacity="0.24"/>
</linearGradient>
<linearGradient id="paint1_linear_375_53" x1="1612.5" y1="623.286" x2="0.0204647" y2="616.286" gradientUnits="userSpaceOnUse">
<stop offset="0.075" stop-color="#EC1B69" stop-opacity="0"/>
<stop offset="1" stop-color="#EC1B69"/>
</linearGradient>
<clipPath id="clip0_375_53">
<rect width="1920" height="2025" fill="white"/>
</clipPath>
</defs>
</svg>
